# xmcd
#
# Track frame offsets: 
#        150
#        15986
#        34998
#        50525
#        65306
#        82210
#        98942
#        116258
#        132720
#        145835
#        166024
#        184464
#
# Disc length: 2661 seconds
#
# Revision: 4
# Processed by: cddbd v1.5.2PL0 Copyright (c) Steve Scherf et al.
# Submitted via: ExactAudioCopy v0.99pb5
#
DISCID=a50a630c
DTITLE=Jazmine Sullivan - Reality Show
DYEAR=2015
DGENRE=Soul
TTITLE0=Dumb featuring Meek Hill 
TTITLE1=Mascara
TTITLE2=Brand New
TTITLE3=Silver Lining
TTITLE4=#Hoodlove
TTITLE5=Let It Burn
TTITLE6=Veins
TTITLE7=Forever Didn't Last
TTITLE8=Stupid Girl
TTITLE9=Stanley
TTITLE10=Masterpiece (Mona Lisa)
TTITLE11=If You Dare (Bonus)
EXTD=
EXTT0=
EXTT1=
EXTT2=
EXTT3=
EXTT4=
EXTT5=
EXTT6=
EXTT7=
EXTT8=
EXTT9=
EXTT10=
EXTT11=
PLAYORDER=
